<?xml version="1.0" encoding="utf-8"?>
<!-- Generator: Adobe Illustrator 24.0.1, SVG Export Plug-In . SVG Version: 6.00 Build 0)  -->
<svg version="1.1" xmlns="http://www.w3.org/2000/svg" xmlns:xlink="http://www.w3.org/1999/xlink" x="0px" y="0px"
	 viewBox="0 0 2834.65 2834.65" style="enable-background:new 0 0 2834.65 2834.65;" xml:space="preserve">
<style type="text/css">
	.st0{fill:none;stroke:#000000;stroke-width:70.2;stroke-miterlimit:10;}
	.st1{fill:none;stroke:#000000;stroke-width:37.8;stroke-miterlimit:10;}
</style>
<g id="Capa_2">
</g>
<g id="Capa_1">
	<path class="st0" d="M2573.04,857.24v577.8c0,207.09-78.19,395.87-206.6,538.49c-95.36,105.89-218.38,186.35-357.75,229.99
		c-37.15,11.61-75.55,20.63-114.86,26.78c-40.99,6.48-83.05,9.83-125.87,9.83h-652.27c-43.63,0-86.4-3.46-128.14-10.15
		c-37.31-5.94-73.76-14.47-109.19-25.38c-140.89-43.42-265.3-124.42-361.48-231.39c-128.25-142.61-206.33-331.24-206.33-538.16
		v-577.8c0-444.64,360.45-805.09,805.14-805.09h652.27C2212.59,52.15,2573.04,412.6,2573.04,857.24z"/>
	<path class="st1" d="M1776.18,2066.13h-668.76c-340.72,0-616.92-276.21-616.92-616.92V843.07c0-340.72,276.21-616.92,616.92-616.92
		h668.76c340.72,0,616.92,276.21,616.92,616.92v606.14C2393.1,1789.93,2116.9,2066.13,1776.18,2066.13z"/>
	<path class="st1" d="M1757.61,1743.45h-631.63c-166.69,0-301.82-135.13-301.82-301.82V850.66c0-166.69,135.13-301.82,301.82-301.82
		h631.63c166.69,0,301.82,135.13,301.82,301.82v590.97C2059.43,1608.32,1924.3,1743.45,1757.61,1743.45z"/>
	<path class="st1" d="M1770.16,1829.89h-656.72c-209.13,0-378.66-169.53-378.66-378.67V841.06c0-209.13,169.53-378.67,378.66-378.67
		h656.72c209.13,0,378.66,169.53,378.66,378.67v610.17C2148.82,1660.36,1979.29,1829.89,1770.16,1829.89z"/>
	<path class="st1" d="M1626.12,1743.45h-368.64v-406.71c0.06-11.94,1.68-87.36,62.28-138.03c47.2-39.46,100.96-39.49,122.05-39.5
		c24.83-0.01,98.34,4.38,144.63,57.8c34.58,39.91,39.81,88.66,39.68,119.72C1625.54,1472.31,1626.12,1607.88,1626.12,1743.45z"/>
	<path class="st1" d="M1806.89,1353.41"/>
	<path class="st1" d="M1560.23,1743.45h-236.3v-352.29c-0.63-5.52-8.26-82.37,45.74-126.97c31.03-25.63,65.59-26.71,72.41-26.8
		c3.4-0.05,52.73,0.08,86.4,36.82c33.44,36.49,32.26,88.46,31.75,116.95C1558.53,1486.16,1559.3,1602.07,1560.23,1743.45z"/>
	<line class="st1" x1="824.16" y1="1282.9" x2="1017.59" y2="1282.9"/>
	<line class="st1" x1="1866.02" y1="1282.9" x2="2051.28" y2="1282.9"/>
	<path class="st1" d="M1017.57,1282.9"/>
	<path class="st1" d="M1017.57,1282.9V979.15c0-58.83,57.62-106.52,128.68-106.52h596.7c67.99,0,123.07,45.64,123.07,101.87v308.39"
		/>
	<ellipse cx="1016.1" cy="1281.07" rx="20.52" ry="20.77"/>
	<ellipse cx="1867.57" cy="1280.9" rx="20.52" ry="20.77"/>
	<path class="st1" d="M1339.98,2259.69l199.62-1.04l1.14,220.23c0,6.46-0.66,47.31-33.33,74.92c-25.45,21.5-54.56,21.67-65.98,21.73
		c-13.45,0.08-53.26-2.09-78.48-30.89c-18.84-21.52-21.81-47.9-21.82-64.72C1341.06,2406.51,1340.36,2333.1,1339.98,2259.69z"/>
	<path class="st1" d="M1393.22,2259.44l90.16-0.47l0.88,168.81c0.26,2.64,3.36,39.45-17.14,60.93
		c-11.78,12.34-24.96,12.93-27.56,12.99c-1.3,0.03-20.12,0.07-33.06-17.47c-12.85-17.42-12.53-42.33-12.41-55.98
		C1394.5,2382.73,1393.92,2327.19,1393.22,2259.44z"/>
	<path class="st1" d="M1893.83,2230.3c39.31-6.16,77.71-15.17,114.86-26.78c-34.99,4.1-71.12,7.94-108.38,11.5
		c-138.62,13.07-292.46,21.6-459.27,21.49c-167.18-0.11-321.3-8.86-460.03-22.14c-35.21-3.4-69.44-7.07-102.65-10.96v1.19
		l-2.97,357.1c0,30.51,18.36,57.35,46.22,72.9c15.98,8.91,35.1,14.15,55.67,14.15h927.5c20.41,0,39.42-5.13,55.3-13.99"/>
	<path class="st1" d="M2113.67,2899.14"/>
	<path class="st1" d="M516.88,1973.2c-197.69,34.45-347.71,202.07-347.71,403.7c0,226.58,189.43,410.24,423.2,410.24
		c133,0,251.75-59.51,329.24-152.55"/>
	<path class="st1" d="M987.55,2229.97c-2-5.29-4.21-10.48-6.53-15.61"/>
	<path class="st1" d="M1900.31,2215.01c-2.32,5.02-4.43,10.15-6.48,15.28c39.31-6.16,77.71-15.17,114.86-26.78
		c0.32-0.05,0.59-0.05,0.92-0.11c-0.97,119.45-1.94,238.84-2.97,358.29c0,30.62-18.52,57.62-46.55,73.06
		c77.54,92.93,196.18,152.39,329.13,152.39c233.71,0,423.2-183.65,423.2-410.24c0-200.99-149.15-368.23-345.98-403.38"/>
	<path class="st1" d="M760.68,2156.81c-0.29,47.01-8.68,112.59-54.31,156.75c-74.8,72.39-203.24,42.3-203.66,51.84
		c-0.43,9.78,133.51,62.63,238.22-4.94c80.2-51.75,97.67-144.74,101.21-166.63"/>
	<path class="st1" d="M2124.7,2156.92c-0.16,47.01,7.58,112.67,52.79,157.27c74.09,73.11,202.82,44.26,203.15,53.81
		c0.34,9.78-134.11,61.33-238.16-7.25c-79.7-52.53-96.26-145.68-99.59-167.6"/>
	<path class="st1" d="M1441.8,864.64"/>
	<path class="st1" d="M1719.91,872.63h-345.13c-13.2-39.71-26.1-94.21-26.42-159.4c-0.33-67.55,12.95-123.86,26.42-164.39
		c115.04,0,230.09,0,345.13,0c13.02,39.68,25.57,93.57,26.09,157.81C1746.54,774.72,1733.38,831.57,1719.91,872.63z"/>
	<path class="st1" d="M1668.89,868.74h-241.57c-9.24-38.75-18.26-91.94-18.49-155.57c-0.23-65.92,9.06-120.88,18.49-160.44
		c80.52,0,161.04,0,241.57,0c9.11,38.73,17.9,91.32,18.26,154.02C1687.53,773.19,1678.32,828.66,1668.89,868.74z"/>
	<line class="st1" x1="1659.7" y1="558.84" x2="1501.51" y2="779.68"/>
	<line class="st1" x1="1441.79" y1="566.61" x2="1655.36" y2="848.22"/>
	<line class="st1" x1="1410.41" y1="664.33" x2="1578.85" y2="877.6"/>
</g>
</svg>
