<?xml version="1.0" encoding="utf-8"?>
<!-- Generator: Adobe Illustrator 24.0.1, SVG Export Plug-In . SVG Version: 6.00 Build 0)  -->
<svg version="1.1" xmlns="http://www.w3.org/2000/svg" xmlns:xlink="http://www.w3.org/1999/xlink" x="0px" y="0px"
	 viewBox="0 0 2834.6 2834.6" style="enable-background:new 0 0 2834.6 2834.6;" xml:space="preserve">
<style type="text/css">
	.st0{fill:none;stroke:#FFFFFF;stroke-width:43.8574;stroke-miterlimit:10;}
	.st1{fill:none;stroke:#FFFFFF;stroke-width:23.6155;stroke-miterlimit:10;}
	.st2{fill:#FFFFFF;stroke:#FFFFFF;stroke-miterlimit:10;}
	.st3{fill:none;stroke:#FFFFFF;stroke-width:31.2375;stroke-miterlimit:10;}
	.st4{fill:none;stroke:#FFFFFF;stroke-width:26.9167;stroke-miterlimit:10;}
	.st5{fill:none;stroke:#FFFFFF;stroke-width:31.8401;stroke-miterlimit:10;}
</style>
<g id="Capa_2">
</g>
<g id="Capa_1">
	<path class="st0" d="M2139.2,1082.1v361c0,84.9-21.1,165-58.2,235.1c-42.4,32.9-75.8,76.8-95.9,127.2c-14.5,14-29.9,27.1-46,39.3
		c-56.5,7.1-106.4,34.8-142.1,75.1c-1.2,0.4-2.4,0.8-3.6,1.2c-13.4-2.3-27.2-3.2-41.3-2.9c-26.5,0.7-51.7,6.3-74.8,15.8
		c-8.3,3.4-16.3,7.4-24,11.8c-5.7,0.2-11.3,0.3-17,0.3h-407.5c-27.3,0-54-2.2-80.1-6.3c-23.3-3.7-46.1-9-68.2-15.9
		c-88-27.1-165.8-77.7-225.8-144.6c-80.1-89.1-128.9-206.9-128.9-336.2v-361c0-277.8,225.2-503,503-503h407.5
		C1914,579.1,2139.2,804.3,2139.2,1082.1z"/>
	<path class="st1" d="M1641.4,1837.3h-417.8c-212.9,0-385.4-172.6-385.4-385.4v-378.7c0-212.9,172.6-385.4,385.4-385.4h417.8
		c212.9,0,385.4,172.6,385.4,385.4v378.7C2026.8,1664.8,1854.3,1837.3,1641.4,1837.3z"/>
	<path class="st1" d="M1629.8,1635.7h-394.6c-104.1,0-188.6-84.4-188.6-188.6V1078c0-104.1,84.4-188.6,188.6-188.6h394.6
		c104.1,0,188.6,84.4,188.6,188.6v369.2C1818.4,1551.3,1733.9,1635.7,1629.8,1635.7z"/>
	<path class="st1" d="M1637.6,1689.7h-410.3c-130.7,0-236.6-105.9-236.6-236.6V1072c0-130.7,105.9-236.6,236.6-236.6h410.3
		c130.7,0,236.6,105.9,236.6,236.6v381.2C1874.2,1583.8,1768.3,1689.7,1637.6,1689.7z"/>
	<path class="st1" d="M1547.6,1635.7h-230.3v-254.1c0-7.5,1-54.6,38.9-86.2c29.5-24.7,63.1-24.7,76.2-24.7
		c15.5,0,61.4,2.7,90.4,36.1c21.6,24.9,24.9,55.4,24.8,74.8C1547.3,1466.3,1547.6,1551,1547.6,1635.7z"/>
	<path class="st1" d="M1660.6,1392.1"/>
	<path class="st1" d="M1506.5,1635.7h-147.6v-220.1c-0.4-3.4-5.2-51.5,28.6-79.3c19.4-16,41-16.7,45.2-16.7c2.1,0,32.9,0.1,54,23
		c20.9,22.8,20.2,55.3,19.8,73.1C1505.4,1475,1505.9,1547.4,1506.5,1635.7z"/>
	<line class="st1" x1="1046.6" y1="1348" x2="1167.5" y2="1348"/>
	<line class="st1" x1="1697.5" y1="1348" x2="1813.3" y2="1348"/>
	<path class="st1" d="M1167.5,1348"/>
	<path class="st1" d="M1167.5,1348v-189.8c0-36.8,36-66.6,80.4-66.6h372.8c42.5,0,76.9,28.5,76.9,63.6V1348"/>
	<ellipse class="st2" cx="1166.5" cy="1346.9" rx="12.8" ry="13"/>
	<ellipse class="st2" cx="1698.5" cy="1346.7" rx="12.8" ry="13"/>
	<path class="st1" d="M1368.9,1958.3l124.7-0.6l0.7,137.6c0,4-0.4,29.6-20.8,46.8c-15.9,13.4-34.1,13.5-41.2,13.6
		c-8.4,0-33.3-1.3-49-19.3c-11.8-13.4-13.6-29.9-13.6-40.4C1369.6,2050,1369.1,2004.1,1368.9,1958.3z"/>
	<path class="st1" d="M1402.1,1958.1l56.3-0.3l0.5,105.5c0.2,1.7,2.1,24.6-10.7,38.1c-7.4,7.7-15.6,8.1-17.2,8.1
		c-0.8,0-12.6,0-20.7-10.9c-8-10.9-7.8-26.4-7.8-35C1402.9,2035.1,1402.6,2000.4,1402.1,1958.1z"/>
	<path class="st1" d="M1786.7,1923.2c-21.9,2.6-44.4,5-67.7,7.2"/>
	<path class="st1" d="M1852.2,2357.7"/>
	<path class="st1" d="M1148.7,1939.7c-1.2-3.3-2.6-6.5-4.1-9.7"/>
	<path class="st1" d="M1432.5,1086.7"/>
	<path class="st1" d="M1606.2,1091.7h-215.6c-8.2-24.8-16.3-58.9-16.5-99.6c-0.2-42.2,8.1-77.4,16.5-102.7c71.9,0,143.7,0,215.6,0
		c8.1,24.8,16,58.5,16.3,98.6C1622.9,1030.5,1614.7,1066,1606.2,1091.7z"/>
	<path class="st1" d="M1574.4,1089.3h-150.9c-5.8-24.2-11.4-57.4-11.6-97.2c-0.1-41.2,5.7-75.5,11.6-100.2c50.3,0,100.6,0,150.9,0
		c5.7,24.2,11.2,57.1,11.4,96.2C1586,1029.6,1580.3,1064.2,1574.4,1089.3z"/>
	<line class="st1" x1="1568.6" y1="895.6" x2="1469.8" y2="1033.6"/>
	<line class="st1" x1="1432.5" y1="900.5" x2="1565.9" y2="1076.4"/>
	<line class="st1" x1="1412.9" y1="961.6" x2="1518.1" y2="1094.8"/>
</g>
<g id="Capa_3">
	<path class="st3" d="M1358.4,2261c0,88.6-71.8,160.5-160.5,160.5l-615.7,8.6h-0.2l-4.4,0.1c-93.4,0-169.2-75.7-169.2-169.2
		c0-61.5,32.8-115.3,81.9-144.9c25.5-15.4,55.4-24.2,87.3-24.2h0.8c9.7-118,108.6-210.8,229.1-210.8c105.2,0,193.9,70.6,221.2,167.1
		c2.9-0.1,5.8-0.2,8.7-0.2c14.5,0,28.5,1.8,42,5.1c33.4,8.3,63,26.3,85.6,50.9c10.6-2.2,21.6-3.4,32.9-3.4c14.3,0,28.1,1.9,41.2,5.3
		c49.2,13,89.1,48.8,107.8,95.4C1354.3,2219.7,1358.4,2239.9,1358.4,2261z"/>
	<path class="st4" d="M1546.7,2135.2c0.6,23.2,5,45.4,12.5,66.1h-212.2c-18.7-46.6-58.6-82.4-107.8-95.4c-13.2-3.5-27-5.3-41.2-5.3
		c-11.3,0-22.3,1.2-32.9,3.4c-22.6-24.6-52.2-42.6-85.6-50.9l1.1-129.1v-0.7c20.7,2.4,42.1,4.7,64.1,6.8
		c86.7,8.3,183,13.8,287.4,13.8c15.9,0,31.6-0.1,47.1-0.3c70.2-1,136.4-4.5,198.2-9.4C1598.6,1966.5,1544.2,2045,1546.7,2135.2z"/>
	<path class="st4" d="M2592.6,2344.5l-5.7,0.1l-0.2,0l-810.8,11c-93.5,2.6-174.5-55.9-204.6-139.3c-7.5-20.7-11.8-42.9-12.5-66.1
		c-2.2-80.7,41.1-152.1,106.6-189.5c7.7-4.4,15.7-8.3,24-11.8c23.1-9.5,48.3-15.1,74.8-15.8c14.1-0.4,27.9,0.6,41.3,2.9
		c0.7,0.1,1.5,0.3,2.2,0.4c0.5-0.5,0.9-1.1,1.4-1.6c35.7-40.3,85.6-68,142.1-75.1c7.3-0.9,14.8-1.5,22.4-1.7c3.8-0.1,7.6-0.1,11.4,0
		c3.3-12.9,7.3-25.4,12.2-37.5c20.2-50.5,51.6-104.8,95.8-135.3c53.4-36.8,110.3-53.3,177.1-55.2c158.7-4.4,292.2,114.1,309.3,269.2
		c0.3,0,0.7,0,1,0c123-3.4,225.4,93.6,228.9,216.6C2812.5,2238.6,2715.5,2341.1,2592.6,2344.5z"/>
	<path class="st5" d="M725.7,1291.2c-99.4,44.2-174.6,132.3-201.6,239c-4.5-0.1-9-0.1-13.5,0c-78.6,2.2-148.4,37.8-196.2,92.8
		c-16.6-3-33.8-4.3-51.4-3.9C124.9,1623,16.2,1738,20,1876c3.8,138,118.8,246.8,256.8,243l213.7-2.9c25.5-15.4,55.4-24.2,87.3-24.2
		h0.8c9.7-118,108.6-210.8,229.1-210.8c105.2,0,193.9,70.6,221.2,167.1c2.9-0.1,5.8-0.2,8.7-0.2c14.5,0,28.5,1.8,42,5.1
		c33.4,8.3,63,26.3,85.6,50.9c10.6-2.2,21.6-3.4,32.9-3.4c14.3,0,28.1,1.9,41.2,5.3"/>
	<path class="st5" d="M1479.1,1943.4c-0.4,0.9-0.7,1.7-1.1,2.6"/>
</g>
</svg>
