<?xml version="1.0" encoding="utf-8"?>
<!-- Generator: Adobe Illustrator 24.0.1, SVG Export Plug-In . SVG Version: 6.00 Build 0)  -->
<svg version="1.1" id="Capa_1" xmlns="http://www.w3.org/2000/svg" xmlns:xlink="http://www.w3.org/1999/xlink" x="0px" y="0px"
	 viewBox="0 0 2834.6 2834.6" style="enable-background:new 0 0 2834.6 2834.6;" xml:space="preserve">
<style type="text/css">
	.st0{fill:none;stroke:#FFFFFF;stroke-width:70.2;stroke-miterlimit:10;}
	.st1{fill:none;stroke:#FFFFFF;stroke-width:37.8;stroke-miterlimit:10;}
	.st2{fill:#F4FAFE;stroke:#FFFFFF;stroke-miterlimit:10;}
</style>
<g id="Capa_2_1_">
</g>
<g id="Capa_1_1_">
	<path class="st0" d="M2573,857.2V1435c0,207.1-78.2,395.9-206.6,538.5c-95.4,105.9-218.4,186.4-357.8,230
		c-37.2,11.6-75.6,20.6-114.9,26.8c-41,6.5-83.1,9.8-125.9,9.8h-652.3c-43.6,0-86.4-3.5-128.1-10.1c-37.3-5.9-73.8-14.5-109.2-25.4
		c-140.9-43.4-265.3-124.4-361.5-231.4c-128.3-142.6-206.3-331.2-206.3-538.2V857.3c0-444.6,360.5-805.1,805.1-805.1H1768
		C2212.6,52.2,2573,412.6,2573,857.2z"/>
	<path class="st1" d="M1776.2,2066.1h-668.8c-340.7,0-616.9-276.2-616.9-616.9V843.1c0-340.7,276.2-616.9,616.9-616.9h668.8
		c340.7,0,616.9,276.2,616.9,616.9v606.1C2393.1,1789.9,2116.9,2066.1,1776.2,2066.1z"/>
	<path class="st1" d="M1757.6,1743.4H1126c-166.7,0-301.8-135.1-301.8-301.8v-591c0-166.7,135.1-301.8,301.8-301.8h631.6
		c166.7,0,301.8,135.1,301.8,301.8v591C2059.4,1608.3,1924.3,1743.4,1757.6,1743.4z"/>
	<path class="st1" d="M1770.2,1829.9h-656.7c-209.1,0-378.7-169.5-378.7-378.7V841.1c0-209.1,169.5-378.7,378.7-378.7h656.7
		c209.1,0,378.7,169.5,378.7,378.7v610.2C2148.8,1660.4,1979.3,1829.9,1770.2,1829.9z"/>
	<path class="st1" d="M1626.1,1743.4h-368.6v-406.7c0.1-11.9,1.7-87.4,62.3-138c47.2-39.5,101-39.5,122.1-39.5
		c24.8,0,98.3,4.4,144.6,57.8c34.6,39.9,39.8,88.7,39.7,119.7C1625.5,1472.3,1626.1,1607.9,1626.1,1743.4z"/>
	<path class="st1" d="M1806.9,1353.4"/>
	<path class="st1" d="M1560.2,1743.4h-236.3v-352.3c-0.6-5.5-8.3-82.4,45.7-127c31-25.6,65.6-26.7,72.4-26.8
		c3.4-0.1,52.7,0.1,86.4,36.8c33.4,36.5,32.3,88.5,31.8,116.9C1558.5,1486.2,1559.3,1602.1,1560.2,1743.4z"/>
	<line class="st1" x1="824.2" y1="1282.9" x2="1017.6" y2="1282.9"/>
	<line class="st1" x1="1866" y1="1282.9" x2="2051.3" y2="1282.9"/>
	<path class="st1" d="M1017.6,1282.9"/>
	<path class="st1" d="M1017.6,1282.9V979.2c0-58.8,57.6-106.5,128.7-106.5h596.7c68,0,123.1,45.6,123.1,101.9v308.4"/>
	<ellipse class="st2" cx="1016.1" cy="1281.1" rx="20.5" ry="20.8"/>
	<ellipse class="st2" cx="1867.6" cy="1280.9" rx="20.5" ry="20.8"/>
	<path class="st1" d="M1340,2259.7l199.6-1l1.1,220.2c0,6.5-0.7,47.3-33.3,74.9c-25.4,21.5-54.6,21.7-66,21.7
		c-13.4,0.1-53.3-2.1-78.5-30.9c-18.8-21.5-21.8-47.9-21.8-64.7C1341.1,2406.5,1340.4,2333.1,1340,2259.7z"/>
	<path class="st1" d="M1393.2,2259.4l90.2-0.5l0.9,168.8c0.3,2.6,3.4,39.4-17.1,60.9c-11.8,12.3-25,12.9-27.6,13
		c-1.3,0-20.1,0.1-33.1-17.5c-12.8-17.4-12.5-42.3-12.4-56C1394.5,2382.7,1393.9,2327.2,1393.2,2259.4z"/>
	<path class="st1" d="M1893.8,2230.3c39.3-6.2,77.7-15.2,114.9-26.8c-35,4.1-71.1,7.9-108.4,11.5c-138.6,13.1-292.5,21.6-459.3,21.5
		c-167.2-0.1-321.3-8.9-460-22.1c-35.2-3.4-69.4-7.1-102.7-11v1.2l-3,357.1c0,30.5,18.4,57.4,46.2,72.9c16,8.9,35.1,14.1,55.7,14.1
		h927.5c20.4,0,39.4-5.1,55.3-14"/>
	<path class="st1" d="M2113.7,2899.1"/>
	<path class="st1" d="M516.9,1973.2c-197.7,34.4-347.7,202.1-347.7,403.7c0,226.6,189.4,410.2,423.2,410.2
		c133,0,251.8-59.5,329.2-152.6"/>
	<path class="st1" d="M987.5,2230c-2-5.3-4.2-10.5-6.5-15.6"/>
	<path class="st1" d="M1900.3,2215c-2.3,5-4.4,10.1-6.5,15.3c39.3-6.2,77.7-15.2,114.9-26.8c0.3-0.1,0.6-0.1,0.9-0.1
		c-1,119.4-1.9,238.8-3,358.3c0,30.6-18.5,57.6-46.6,73.1c77.5,92.9,196.2,152.4,329.1,152.4c233.7,0,423.2-183.6,423.2-410.2
		c0-201-149.1-368.2-346-403.4"/>
	<path class="st1" d="M760.7,2156.8c-0.3,47-8.7,112.6-54.3,156.8c-74.8,72.4-203.2,42.3-203.7,51.8c-0.4,9.8,133.5,62.6,238.2-4.9
		c80.2-51.8,97.7-144.7,101.2-166.6"/>
	<path class="st1" d="M2124.7,2156.9c-0.2,47,7.6,112.7,52.8,157.3c74.1,73.1,202.8,44.3,203.1,53.8c0.3,9.8-134.1,61.3-238.2-7.3
		c-79.7-52.5-96.3-145.7-99.6-167.6"/>
	<path class="st1" d="M1441.8,864.6"/>
	<path class="st1" d="M1719.9,872.6h-345.1c-13.2-39.7-26.1-94.2-26.4-159.4c-0.3-67.5,12.9-123.9,26.4-164.4c115,0,230.1,0,345.1,0
		c13,39.7,25.6,93.6,26.1,157.8C1746.5,774.7,1733.4,831.6,1719.9,872.6z"/>
	<path class="st1" d="M1668.9,868.7h-241.6c-9.2-38.8-18.3-91.9-18.5-155.6c-0.2-65.9,9.1-120.9,18.5-160.4c80.5,0,161,0,241.6,0
		c9.1,38.7,17.9,91.3,18.3,154C1687.5,773.2,1678.3,828.7,1668.9,868.7z"/>
	<line class="st1" x1="1659.7" y1="558.8" x2="1501.5" y2="779.7"/>
	<line class="st1" x1="1441.8" y1="566.6" x2="1655.4" y2="848.2"/>
	<line class="st1" x1="1410.4" y1="664.3" x2="1578.8" y2="877.6"/>
</g>
</svg>
